<?xml version="1.0" encoding="UTF-8" standalone="no"?>
<!DOCTYPE svg PUBLIC "-//W3C//DTD SVG 1.1//EN" "http://www.w3.org/Graphics/SVG/1.1/DTD/svg11.dtd">
<svg xmlns="http://www.w3.org/2000/svg" version="1.1" viewBox="0.00 0.00 791.00 1024.00">
<g stroke-width="2.00" fill="none" stroke-linecap="butt">
<path stroke="#808080" vector-effect="non-scaling-stroke" d="
  M 153.93 249.76
  Q 161.51 251.59 171.41 253.25
  C 179.47 254.60 190.16 255.37 198.77 257.17
  Q 209.91 259.49 213.68 268.93
  C 216.86 276.86 217.81 285.60 218.37 294.14
  Q 219.54 312.10 219.54 337.50
  Q 219.53 370.03 219.26 436.17
  C 219.14 464.32 220.10 493.26 220.57 519.50
  Q 221.31 560.78 219.30 593.25
  Q 218.49 606.38 216.35 620.05
  Q 214.66 630.91 211.02 639.80
  C 204.41 655.95 182.39 656.19 167.58 656.76
  C 163.12 656.93 158.13 657.87 154.15 658.37
  A 0.27 0.27 0.0 0 0 153.91 658.67
  L 153.94 658.98
  A 0.06 0.05 83.0 0 0 153.99 659.03
  L 438.64 659.29
  A 0.42 0.40 -85.9 0 0 439.04 658.93
  L 451.67 557.14
  A 0.27 0.27 0.0 0 0 451.16 556.97
  C 444.17 568.96 439.36 584.00 435.14 594.39
  Q 431.17 604.16 421.43 615.95
  C 393.90 649.28 354.49 656.17 313.25 657.27
  Q 294.56 657.77 268.74 657.68
  A 0.30 0.29 90.0 0 1 268.45 657.38
  L 267.57 251.37
  A 0.54 0.53 -0.6 0 1 268.10 250.84
  Q 283.41 250.60 300.01 250.86
  C 323.43 251.24 345.36 252.77 366.98 259.51
  C 395.58 268.44 418.72 288.26 429.79 316.18
  Q 432.27 322.44 433.08 325.47
  Q 438.58 346.15 442.02 355.27
  Q 442.17 355.68 442.48 356.02
  A 0.21 0.21 0.0 0 0 442.85 355.86
  L 431.67 250.77
  A 0.28 0.28 0.0 0 0 431.39 250.52
  L 153.99 249.26
  A 0.25 0.25 0.0 0 0 153.93 249.76"
/>
<path stroke="#808080" vector-effect="non-scaling-stroke" d="
  M 355.88 396.07
  A 0.21 0.21 0.0 0 0 355.68 396.27
  L 354.37 528.06
  A 0.29 0.29 0.0 0 0 354.94 528.13
  Q 357.36 517.99 359.22 508.49
  C 361.92 494.71 366.17 480.62 378.82 472.76
  C 391.68 464.77 408.71 463.26 423.75 463.47
  Q 439.16 463.69 449.07 464.93
  Q 478.79 468.64 499.45 491.56
  C 508.56 501.66 516.12 513.44 523.09 525.37
  Q 527.35 532.67 534.62 543.64
  Q 576.65 607.06 581.74 614.96
  Q 592.49 631.64 597.57 636.48
  C 614.96 653.05 638.47 658.09 662.03 659.12
  Q 684.72 660.11 709.45 659.00
  A 0.23 0.23 0.0 0 0 709.52 658.55
  Q 706.47 657.42 673.29 645.23
  C 664.41 641.97 656.94 637.02 650.94 629.26
  Q 646.53 623.56 643.06 618.30
  C 617.08 578.95 590.77 539.35 553.16 483.47
  Q 549.72 478.36 543.92 473.57
  Q 541.95 471.95 533.18 467.78
  Q 528.19 465.40 522.72 461.60
  A 0.40 0.40 0.0 0 1 522.80 460.90
  Q 534.92 456.37 560.79 447.28
  Q 575.32 442.18 585.71 433.91
  C 606.59 417.30 621.04 392.68 623.47 366.34
  C 626.57 332.83 612.06 300.64 585.60 279.89
  C 555.12 255.99 514.81 248.76 476.92 249.70
  A 0.17 0.17 0.0 0 0 476.82 250.00
  Q 477.31 250.37 477.99 250.52
  C 487.50 252.69 501.53 255.02 513.03 259.25
  Q 539.36 268.95 552.68 293.84
  C 567.90 322.27 571.26 357.93 564.14 388.87
  Q 557.04 419.69 534.12 440.35
  C 513.64 458.80 487.98 460.33 461.75 460.63
  Q 434.09 460.95 418.00 460.56
  C 403.14 460.20 383.50 458.43 372.79 446.64
  C 367.55 440.87 364.12 432.98 362.09 425.66
  Q 358.09 411.29 356.17 396.30
  A 0.26 0.26 0.0 0 0 355.89 396.07
  L 355.88 396.07"
/>
</g>
<path fill="#ffffff" d="
  M 791.00 0.00
  L 791.00 1024.00
  L 0.00 1024.00
  L 0.00 0.00
  L 791.00 0.00
  Z
  M 153.93 249.76
  Q 161.51 251.59 171.41 253.25
  C 179.47 254.60 190.16 255.37 198.77 257.17
  Q 209.91 259.49 213.68 268.93
  C 216.86 276.86 217.81 285.60 218.37 294.14
  Q 219.54 312.10 219.54 337.50
  Q 219.53 370.03 219.26 436.17
  C 219.14 464.32 220.10 493.26 220.57 519.50
  Q 221.31 560.78 219.30 593.25
  Q 218.49 606.38 216.35 620.05
  Q 214.66 630.91 211.02 639.80
  C 204.41 655.95 182.39 656.19 167.58 656.76
  C 163.12 656.93 158.13 657.87 154.15 658.37
  A 0.27 0.27 0.0 0 0 153.91 658.67
  L 153.94 658.98
  A 0.06 0.05 83.0 0 0 153.99 659.03
  L 438.64 659.29
  A 0.42 0.40 -85.9 0 0 439.04 658.93
  L 451.67 557.14
  A 0.27 0.27 0.0 0 0 451.16 556.97
  C 444.17 568.96 439.36 584.00 435.14 594.39
  Q 431.17 604.16 421.43 615.95
  C 393.90 649.28 354.49 656.17 313.25 657.27
  Q 294.56 657.77 268.74 657.68
  A 0.30 0.29 90.0 0 1 268.45 657.38
  L 267.57 251.37
  A 0.54 0.53 -0.6 0 1 268.10 250.84
  Q 283.41 250.60 300.01 250.86
  C 323.43 251.24 345.36 252.77 366.98 259.51
  C 395.58 268.44 418.72 288.26 429.79 316.18
  Q 432.27 322.44 433.08 325.47
  Q 438.58 346.15 442.02 355.27
  Q 442.17 355.68 442.48 356.02
  A 0.21 0.21 0.0 0 0 442.85 355.86
  L 431.67 250.77
  A 0.28 0.28 0.0 0 0 431.39 250.52
  L 153.99 249.26
  A 0.25 0.25 0.0 0 0 153.93 249.76
  Z
  M 355.88 396.07
  A 0.21 0.21 0.0 0 0 355.68 396.27
  L 354.37 528.06
  A 0.29 0.29 0.0 0 0 354.94 528.13
  Q 357.36 517.99 359.22 508.49
  C 361.92 494.71 366.17 480.62 378.82 472.76
  C 391.68 464.77 408.71 463.26 423.75 463.47
  Q 439.16 463.69 449.07 464.93
  Q 478.79 468.64 499.45 491.56
  C 508.56 501.66 516.12 513.44 523.09 525.37
  Q 527.35 532.67 534.62 543.64
  Q 576.65 607.06 581.74 614.96
  Q 592.49 631.64 597.57 636.48
  C 614.96 653.05 638.47 658.09 662.03 659.12
  Q 684.72 660.11 709.45 659.00
  A 0.23 0.23 0.0 0 0 709.52 658.55
  Q 706.47 657.42 673.29 645.23
  C 664.41 641.97 656.94 637.02 650.94 629.26
  Q 646.53 623.56 643.06 618.30
  C 617.08 578.95 590.77 539.35 553.16 483.47
  Q 549.72 478.36 543.92 473.57
  Q 541.95 471.95 533.18 467.78
  Q 528.19 465.40 522.72 461.60
  A 0.40 0.40 0.0 0 1 522.80 460.90
  Q 534.92 456.37 560.79 447.28
  Q 575.32 442.18 585.71 433.91
  C 606.59 417.30 621.04 392.68 623.47 366.34
  C 626.57 332.83 612.06 300.64 585.60 279.89
  C 555.12 255.99 514.81 248.76 476.92 249.70
  A 0.17 0.17 0.0 0 0 476.82 250.00
  Q 477.31 250.37 477.99 250.52
  C 487.50 252.69 501.53 255.02 513.03 259.25
  Q 539.36 268.95 552.68 293.84
  C 567.90 322.27 571.26 357.93 564.14 388.87
  Q 557.04 419.69 534.12 440.35
  C 513.64 458.80 487.98 460.33 461.75 460.63
  Q 434.09 460.95 418.00 460.56
  C 403.14 460.20 383.50 458.43 372.79 446.64
  C 367.55 440.87 364.12 432.98 362.09 425.66
  Q 358.09 411.29 356.17 396.30
  A 0.26 0.26 0.0 0 0 355.89 396.07
  L 355.88 396.07
  Z"
/>
<path fill="#000000" d="
  M 153.93 249.76
  A 0.25 0.25 0.0 0 1 153.99 249.26
  L 431.39 250.52
  A 0.28 0.28 0.0 0 1 431.67 250.77
  L 442.85 355.86
  A 0.21 0.21 0.0 0 1 442.48 356.02
  Q 442.17 355.68 442.02 355.27
  Q 438.58 346.15 433.08 325.47
  Q 432.27 322.44 429.79 316.18
  C 418.72 288.26 395.58 268.44 366.98 259.51
  C 345.36 252.77 323.43 251.24 300.01 250.86
  Q 283.41 250.60 268.10 250.84
  A 0.54 0.53 -0.6 0 0 267.57 251.37
  L 268.45 657.38
  A 0.30 0.29 -90.0 0 0 268.74 657.68
  Q 294.56 657.77 313.25 657.27
  C 354.49 656.17 393.90 649.28 421.43 615.95
  Q 431.17 604.16 435.14 594.39
  C 439.36 584.00 444.17 568.96 451.16 556.97
  A 0.27 0.27 0.0 0 1 451.67 557.14
  L 439.04 658.93
  A 0.42 0.40 -85.9 0 1 438.64 659.29
  L 153.99 659.03
  A 0.06 0.05 83.0 0 1 153.94 658.98
  L 153.91 658.67
  A 0.27 0.27 0.0 0 1 154.15 658.37
  C 158.13 657.87 163.12 656.93 167.58 656.76
  C 182.39 656.19 204.41 655.95 211.02 639.80
  Q 214.66 630.91 216.35 620.05
  Q 218.49 606.38 219.30 593.25
  Q 221.31 560.78 220.57 519.50
  C 220.10 493.26 219.14 464.32 219.26 436.17
  Q 219.53 370.03 219.54 337.50
  Q 219.54 312.10 218.37 294.14
  C 217.81 285.60 216.86 276.86 213.68 268.93
  Q 209.91 259.49 198.77 257.17
  C 190.16 255.37 179.47 254.60 171.41 253.25
  Q 161.51 251.59 153.93 249.76
  Z"
/>
<path fill="#000000" d="
  M 355.88 396.07
  L 355.89 396.07
  A 0.26 0.26 0.0 0 1 356.17 396.30
  Q 358.09 411.29 362.09 425.66
  C 364.12 432.98 367.55 440.87 372.79 446.64
  C 383.50 458.43 403.14 460.20 418.00 460.56
  Q 434.09 460.95 461.75 460.63
  C 487.98 460.33 513.64 458.80 534.12 440.35
  Q 557.04 419.69 564.14 388.87
  C 571.26 357.93 567.90 322.27 552.68 293.84
  Q 539.36 268.95 513.03 259.25
  C 501.53 255.02 487.50 252.69 477.99 250.52
  Q 477.31 250.37 476.82 250.00
  A 0.17 0.17 0.0 0 1 476.92 249.70
  C 514.81 248.76 555.12 255.99 585.60 279.89
  C 612.06 300.64 626.57 332.83 623.47 366.34
  C 621.04 392.68 606.59 417.30 585.71 433.91
  Q 575.32 442.18 560.79 447.28
  Q 534.92 456.37 522.80 460.90
  A 0.40 0.40 0.0 0 0 522.72 461.60
  Q 528.19 465.40 533.18 467.78
  Q 541.95 471.95 543.92 473.57
  Q 549.72 478.36 553.16 483.47
  C 590.77 539.35 617.08 578.95 643.06 618.30
  Q 646.53 623.56 650.94 629.26
  C 656.94 637.02 664.41 641.97 673.29 645.23
  Q 706.47 657.42 709.52 658.55
  A 0.23 0.23 0.0 0 1 709.45 659.00
  Q 684.72 660.11 662.03 659.12
  C 638.47 658.09 614.96 653.05 597.57 636.48
  Q 592.49 631.64 581.74 614.96
  Q 576.65 607.06 534.62 543.64
  Q 527.35 532.67 523.09 525.37
  C 516.12 513.44 508.56 501.66 499.45 491.56
  Q 478.79 468.64 449.07 464.93
  Q 439.16 463.69 423.75 463.47
  C 408.71 463.26 391.68 464.77 378.82 472.76
  C 366.17 480.62 361.92 494.71 359.22 508.49
  Q 357.36 517.99 354.94 528.13
  A 0.29 0.29 0.0 0 1 354.37 528.06
  L 355.68 396.27
  A 0.21 0.21 0.0 0 1 355.88 396.07
  Z"
/>
</svg>
